# xmcd CD database file
#
# Track frame offsets:
#	182
#	14125
#	28742
#	45717
#	67372
#	86017
#	101655
#	115827
#	131667
#	145720
#	163625
#	174790
#	195010
#	214777
#	229947
#
# Disc length: 3364 seconds
#
# Revision: 4
# Processed by: cddbd v1.5.2PL0 Copyright (c) Steve Scherf et al.
# Submitted via: jetAudio 7
#
DISCID=d00d220f
DTITLE=Ana Belen - Veneno Para El Corazon
DYEAR=1900
DGENRE=Opera
TTITLE0=La Mentria
TTITLE1=Como La Vida Misma
TTITLE2=Derroche
TTITLE3=Quien Eres Tu (Why Can't You Behave)
TTITLE4=Amor Sin Fronteras
TTITLE5=Negra Historia (Don't Fence Me In)
TTITLE6=Me Dice Ven
TTITLE7=Que Marlo Eres
TTITLE8=Neneno Para El Corazon (It's Delovely)
TTITLE9=Quero Estra A Solos
TTITLE10=No Me Voy Sin Bailar (When I Grt Low I Get High)
TTITLE11=Nadie Saber
TTITLE12=El Filo De La Noche
TTITLE13=Basta Ya (you're The Top)
TTITLE14=Derroche
EXTD=
EXTT0=
EXTT1=
EXTT2=
EXTT3=
EXTT4=
EXTT5=
EXTT6=
EXTT7=
EXTT8=
EXTT9=
EXTT10=
EXTT11=
EXTT12=
EXTT13=
EXTT14=
PLAYORDER=
